<svg width="806" height="806" viewBox="0 0 806 806" fill="none" xmlns="http://www.w3.org/2000/svg">
<g transform="translate(106.5 0)">
<path d="M1.78388 475.56C0.137213 482.893 -0.369442 490.06 0.263891 497.06C0.897224 504.06 2.37056 510.393 4.68389 516.06C6.99056 521.727 9.76055 526.56 12.9939 530.56C16.2339 534.56 21.1472 539.06 27.7339 544.06C34.3272 549.06 38.1872 552.893 39.3139 555.56C40.4406 558.227 40.1906 573.893 38.5639 602.56C36.9372 631.227 36.1239 653.727 36.1239 670.06C36.1239 686.393 36.6572 699.727 37.7239 710.06C38.7839 720.393 41.1139 730.893 44.7139 741.56C48.3139 752.227 52.1306 760.56 56.1639 766.56C60.1906 772.56 64.2539 777.46 68.3539 781.26C72.4472 785.053 76.8272 788.457 81.4939 791.47C86.1606 794.483 90.8272 797 95.4939 799.02C100.161 801.04 103.994 802.49 106.994 803.37C109.994 804.25 114.661 804.923 120.994 805.39C127.327 805.85 133.161 805.717 138.494 804.99C143.827 804.263 149.951 802.51 156.864 799.73C163.777 796.95 169.611 793.863 174.364 790.47C179.117 787.077 184.044 782.41 189.144 776.47C194.244 770.53 198.471 763.893 201.824 756.56C205.177 749.227 207.537 742.393 208.904 736.06C210.264 729.727 210.947 721.56 210.954 711.56C210.954 701.56 209.844 688.06 207.624 671.06C205.404 654.06 203.611 636.727 202.244 619.06C200.877 601.393 200.347 584.56 200.654 568.56C200.954 552.56 201.641 541.56 202.714 535.56C203.781 529.56 205.177 524.893 206.904 521.56C208.624 518.227 211.151 515.177 214.484 512.41C217.824 509.643 223.161 506.603 230.494 503.29C237.827 499.97 245.661 496.817 253.994 493.83C262.327 490.843 274.327 487.173 289.994 482.82C305.661 478.473 324.327 474.277 345.994 470.23C367.661 466.19 391.494 463.103 417.494 460.97C443.494 458.837 460.661 456.803 468.994 454.87C477.327 452.93 484.661 450.263 490.994 446.87C497.327 443.483 503.217 439.25 508.664 434.17C514.111 429.097 518.807 423.227 522.754 416.56C526.701 409.893 529.721 402.393 531.814 394.06C533.914 385.727 534.594 377.06 533.854 368.06C533.114 359.06 531.764 352.06 529.804 347.06C527.851 342.06 525.704 337.727 523.364 334.06C521.031 330.393 517.971 326.68 514.184 322.92C510.391 319.16 506.494 315.927 502.494 313.22C498.494 310.52 493.827 308.06 488.494 305.84C483.161 303.613 477.661 301.96 471.994 300.88C466.327 299.793 455.327 299.237 438.994 299.21C422.661 299.177 404.161 300.66 383.494 303.66C362.827 306.653 342.661 310.337 322.994 314.71C303.327 319.083 281.161 325.05 256.494 332.61C231.827 340.17 218.327 343.967 215.994 344C213.661 344.04 212.104 343.643 211.324 342.81C210.544 341.977 210.144 340.06 210.124 337.06C210.104 334.06 211.587 323.393 214.574 305.06C217.567 286.727 220.584 270.56 223.624 256.56C226.657 242.56 229.517 232.227 232.204 225.56C234.891 218.893 238.444 213.197 242.864 208.47C247.284 203.75 252.661 199.86 258.994 196.8C265.327 193.74 273.494 190.71 283.494 187.71C293.494 184.717 304.827 182.033 317.494 179.66C330.161 177.28 343.661 175.253 357.994 173.58C372.327 171.907 386.827 170.85 401.494 170.41C416.161 169.97 438.327 170.747 467.994 172.74C497.661 174.74 516.494 175.227 524.494 174.2C532.494 173.173 538.661 171.843 542.994 170.21C547.327 168.57 551.827 166.287 556.494 163.36C561.161 160.433 565.844 156.57 570.544 151.77C575.244 146.963 578.957 142.227 581.684 137.56C584.411 132.893 586.601 128.227 588.254 123.56C589.914 118.893 591.124 112.393 591.884 104.06C592.644 95.7266 592.617 88.8933 591.804 83.5599C590.984 78.2266 589.611 72.8933 587.684 67.5599C585.751 62.2266 583.264 57.0599 580.224 52.0599C577.191 47.0599 572.477 41.5466 566.084 35.5199C559.691 29.4933 553.827 24.9799 548.494 21.9799C543.161 18.9799 536.494 16.1099 528.494 13.3699C520.494 10.6299 512.661 8.45325 504.994 6.83992C497.327 5.22659 486.994 3.73659 473.994 2.36992C460.994 0.996587 448.327 0.21659 435.994 0.0299237C423.661 -0.156743 404.827 0.529921 379.494 2.08992C354.161 3.64992 328.327 6.60659 301.994 10.9599C275.661 15.3066 251.494 20.4833 229.494 26.4899C207.494 32.4899 188.661 38.4633 172.994 44.4099C157.327 50.3566 145.994 54.9999 138.994 58.3399C131.994 61.6799 123.514 66.2166 113.554 71.9499C103.587 77.6899 94.9206 83.1599 87.5539 88.3599C80.1806 93.5599 73.3272 98.8866 66.9939 104.34C60.6606 109.793 54.4272 116.027 48.2939 123.04C42.1539 130.053 36.5972 137.893 31.6239 146.56C26.6506 155.227 23.0172 163.393 20.7239 171.06C18.4306 178.727 17.2872 186.727 17.2939 195.06C17.3006 203.393 18.4472 210.727 20.7339 217.06C23.0205 223.393 26.8872 229.797 32.3339 236.27C37.7739 242.737 45.4572 249.237 55.3839 255.77C65.3039 262.297 70.8406 266.56 71.9939 268.56C73.1472 270.56 73.8906 273.393 74.2239 277.06C74.5639 280.727 71.4139 303.06 64.7739 344.06C58.1339 385.06 53.8472 407.06 51.9139 410.06C49.9872 413.06 45.2672 417.327 37.7539 422.86C30.2472 428.393 24.2939 433.727 19.8939 438.86C15.5005 443.993 11.7939 449.56 8.77389 455.56C5.76055 461.56 3.43055 468.227 1.78388 475.56Z" fill="url(#paint0_linear_81_52)"/>
<defs>
<linearGradient id="paint0_linear_81_52" x1="37.9941" y1="45.5606" x2="462.494" y2="805.561" gradientUnits="userSpaceOnUse">
<stop stop-color="#526D79"/>
<stop offset="1" stop-color="#3C5763"/>
</linearGradient>
</defs>
</g>
</svg>
